<svg width="24" height="24" viewBox="0 0 24 24" fill="none" xmlns="http://www.w3.org/2000/svg">
<path fill-rule="evenodd" clip-rule="evenodd" d="M18 11C18 14.866 14.866 18 11 18C7.13401 18 4 14.866 4 11C4 7.13401 7.13401 4 11 4C14.866 4 18 7.13401 18 11ZM16.8444 17.8444C15.2719 19.1884 13.2307 20 11 20C6.02944 20 2 15.9706 2 11C2 6.02944 6.02944 2 11 2C15.9706 2 20 6.02944 20 11C20 13.019 19.3352 14.8827 18.2126 16.3841L22.7071 20.8787C23.0976 21.2692 23.0976 21.9024 22.7071 22.2929C22.3166 22.6834 21.6834 22.6834 21.2929 22.2929L16.8444 17.8444Z" fill="#C0C4CD"/>
</svg>
