<svg width="25" height="24" viewBox="0 0 25 24" fill="none" xmlns="http://www.w3.org/2000/svg">
<g id="Selection Controls_Checkboxes_Big">
<path id="Exclude" fill-rule="evenodd" clip-rule="evenodd" d="M12.5 22C18.0228 22 22.5 17.5228 22.5 12C22.5 6.47715 18.0228 2 12.5 2C6.97715 2 2.5 6.47715 2.5 12C2.5 17.5228 6.97715 22 12.5 22ZM18.2071 9.70711C18.5976 9.31658 18.5976 8.68342 18.2071 8.29289C17.8166 7.90237 17.1834 7.90237 16.7929 8.29289L11.5 13.5858L8.20711 10.2929C7.81658 9.90237 7.18342 9.90237 6.79289 10.2929C6.40237 10.6834 6.40237 11.3166 6.79289 11.7071L10.7929 15.7071C11.1834 16.0976 11.8166 16.0976 12.2071 15.7071L18.2071 9.70711Z" fill="#1E2530"/>
</g>
</svg>
