<svg width="24" height="24" viewBox="0 0 24 24" fill="none" xmlns="http://www.w3.org/2000/svg">
<path d="M4.00002 14.5L4.91383 14.9061L5.00002 14.7122V14.5H4.00002ZM2.62497 17.5939L1.71116 17.1877H1.71116L2.62497 17.5939ZM21.3751 17.5939L22.2889 17.1877L22.2889 17.1877L21.3751 17.5939ZM20 14.5H19V14.7122L19.0862 14.9061L20 14.5ZM5.00002 10C5.00002 6.13401 8.13403 3 12 3V1C7.02946 1 3.00002 5.02944 3.00002 10H5.00002ZM5.00002 14.5V10H3.00002V14.5H5.00002ZM3.53879 18L4.91383 14.9061L3.08621 14.0939L1.71116 17.1877L3.53879 18ZM3.53878 18H3.53879L1.71116 17.1877C1.12335 18.5103 2.09147 20 3.53878 20V18ZM20.4613 18H3.53878V20H20.4613V18ZM20.4613 18L20.4613 18V20C21.9086 20 22.8767 18.5103 22.2889 17.1877L20.4613 18ZM19.0862 14.9061L20.4613 18L22.2889 17.1877L20.9138 14.0939L19.0862 14.9061ZM19 10V14.5H21V10H19ZM12 3C15.866 3 19 6.13401 19 10H21C21 5.02944 16.9706 1 12 1V3Z" fill="#060606"/>
<path d="M15 20C15 21.6569 13.6569 23 12 23C10.3431 23 9 21.6569 9 20" stroke="#060606" stroke-width="2"/>
</svg>
