<svg width="24" height="24" viewBox="0 0 24 24" fill="none" xmlns="http://www.w3.org/2000/svg">
<path d="M10.9571 3.13733L3.9571 7.41511C3.36259 7.77842 3 8.42494 3 9.12167V19C3 20.1046 3.89543 21 5 21H7.66667C8.40305 21 9 20.403 9 19.6667V16C9 14.3431 10.3431 13 12 13C13.6569 13 15 14.3431 15 16V19.6667C15 20.403 15.597 21 16.3333 21H19C20.1046 21 21 20.1046 21 19V9.12167C21 8.42494 20.6374 7.77842 20.0429 7.41511L13.0429 3.13733C12.4027 2.74608 11.5973 2.74608 10.9571 3.13733Z" stroke="#060606" stroke-width="2"/>
</svg>
