<svg width="44" height="44" viewBox="0 0 44 44" fill="none" xmlns="http://www.w3.org/2000/svg">
<path fill-rule="evenodd" clip-rule="evenodd" d="M31.6479 0.760557C33.7253 0.724739 35.0147 1.90673 34.9789 3.94834C38.31 3.48271 39.492 5.38105 40.1367 7.88829C40.28 8.38974 40.1009 10.5388 40.1009 10.5388C41.0321 11.0761 41.7843 11.3626 42.3216 12.2581C45.1153 16.8427 39.9934 20.3887 37.4145 21.9288C37.2354 23.5765 36.4474 26.1195 35.9818 27.6955C34.6924 31.9578 33.9044 37.1514 30.0719 38.7274C28.1735 39.5154 26.9199 37.6528 26.0603 38.011C25.6305 38.9065 23.9112 39.4437 22.6934 38.9781C22.2636 38.6915 21.8696 38.405 21.4398 38.1185C20.8309 37.9036 20.4369 37.8677 20.0071 37.5454C18.073 36.041 19.5773 34.5725 19.04 32.3876C18.5028 30.0953 17.9655 27.8029 17.4282 25.5464C16.8193 21.7856 18.7893 18.956 22.0129 18.9201C21.9054 18.8127 21.798 18.7052 21.6905 18.5978C21.4398 18.1322 21.1891 17.6665 20.9384 17.2009C19.6131 12.8311 23.1591 9.9299 26.311 9.24936C26.5976 6.02576 28.3526 2.40817 30.5017 1.11873C30.8957 1.01128 31.2539 0.903828 31.6479 0.760557Z" fill="#060606"/>
<path fill-rule="evenodd" clip-rule="evenodd" d="M41.9986 18.8849C41.6762 18.3835 41.0315 17.882 40.4226 17.703C39.563 17.4164 38.1661 17.5597 37.0915 17.5597H30.1071C28.4595 13.2257 27.1342 8.78434 25.3075 4.59366C24.5553 2.83859 23.5524 0.976074 21.0094 0.976074C20.293 1.26262 19.7557 1.33425 19.2543 1.79988C18.2514 2.69533 17.4634 4.80857 16.8903 6.13383C16.4247 6.99345 15.9591 7.85308 15.4934 8.7127C14.9204 9.9305 14.3473 11.1483 13.7742 12.3661C12.8429 14.0495 11.9117 15.7688 10.9804 17.4522C10.5148 17.6671 9.54769 17.5597 8.93879 17.5597C6.25246 17.5597 2.7065 17.0941 1.52452 18.67C-0.0872811 20.7475 1.77524 26.4783 2.24087 29.0572C3.06468 33.7135 3.02887 40.089 6.03756 42.453C7.50609 43.5992 11.3386 43.1335 13.8458 43.1335C21.081 43.1335 28.2804 43.0977 35.5156 43.0977C38.0228 42.5605 38.1661 40.1965 38.8108 37.7251C39.4913 35.0387 40.2077 32.3166 40.8882 29.6303C41.1748 28.0901 41.4613 26.5858 41.7478 25.0456C42.1777 23.2547 43.0373 20.5326 41.9986 18.8849ZM7.14791 23.5771V23.5412H12.5206C12.5564 24.58 12.628 25.6187 12.6638 26.6216H7.79262C7.57771 25.5829 7.36281 24.58 7.14791 23.5771ZM9.61934 37.0803C9.22534 35.6835 8.72389 34.1791 8.58061 32.5673H12.8787C12.9146 34.1075 12.9862 35.6118 13.022 37.152C11.8759 37.1162 10.7297 37.1162 9.61934 37.0803ZM21.2243 10.5752C22.0839 12.9034 22.9435 15.2315 23.8032 17.5597H17.75C18.932 15.2315 20.0781 12.9034 21.2243 10.5752ZM22.657 37.152H19.0036C18.932 35.6476 18.8603 34.1433 18.8245 32.639C20.2572 32.639 21.6899 32.6031 23.1226 32.6031C23.0868 34.1075 22.8003 35.7551 22.657 37.152ZM23.7673 26.5499C22.0481 26.5499 20.3288 26.5857 18.6096 26.5857C18.5738 25.547 18.5021 24.5083 18.4663 23.5054H24.0897L24.1255 23.5412C24.0181 24.58 23.8748 25.5829 23.7673 26.5499ZM32.7934 37.152H28.7102C28.8535 35.6118 28.9609 34.1075 29.1042 32.5673H33.9038C33.5456 34.0717 33.1874 35.6118 32.7934 37.152ZM35.3723 26.5499C33.5098 26.5499 31.6114 26.5857 29.7489 26.5857C29.8564 25.547 29.9638 24.5083 30.0713 23.5054H35.8737C35.7305 24.5441 35.5514 25.547 35.3723 26.5499Z" fill="white"/>
</svg>
