<svg width="64" height="64" viewBox="0 0 64 64" fill="none" xmlns="http://www.w3.org/2000/svg">
<g clip-path="url(#clip0_559_2888)">
<path fill-rule="evenodd" clip-rule="evenodd" d="M47.9823 16.1933C48.1328 17.8148 47.2378 19.5788 45.4082 19.4839C42.5888 19.3163 42.5287 16.5123 42.4795 14.2165V14.2165V14.2165V14.2164V14.2164V14.2164V14.2164V14.2163V14.2163C42.4706 13.8033 42.4621 13.4068 42.438 13.045C42.3192 11.6528 41.9865 6.96205 42.8419 6.03655C43.5389 5.16643 44.9013 4.66809 45.9626 5.25344C47.5846 6.21441 47.8588 8.24155 48.0996 10.0221C48.1363 10.2934 48.1722 10.5591 48.212 10.8143C48.2473 11.9562 48.1704 13.0949 48.0935 14.2345V14.2345V14.2346V14.2346V14.2347V14.2347V14.2348V14.2348L48.0935 14.235C48.0494 14.8872 48.0054 15.5397 47.9823 16.1933ZM19.4811 5.34751C21.0256 5.29214 22.5067 6.23345 23.2671 7.55445C25.9838 12.6407 18.301 16.1845 15.3625 11.9367C13.6675 9.39753 15.3783 5.92495 18.1663 5.10229C18.5667 4.93686 18.973 5.11982 19.3277 5.27952L19.3277 5.27953L19.3277 5.27953L19.3277 5.27954L19.3277 5.27955C19.3801 5.30311 19.4312 5.32616 19.4811 5.34751ZM18.4924 20.5943L18.4924 20.5942C18.4778 20.4038 18.4635 20.2174 18.4463 20.038C18.1096 20.0395 17.7357 20.0673 17.3453 20.0963H17.3453H17.3453C15.77 20.2134 13.925 20.3506 13.1633 18.8672C12.894 18.1553 12.997 17.1666 13.5118 16.5812C14.0932 16.0759 14.8684 16.1113 15.6312 16.1461C15.9908 16.1625 16.3476 16.1788 16.68 16.1382C17.9704 16.1224 19.2589 16.1046 20.5473 16.0868L20.5492 16.0868L20.551 16.0868C21.8395 16.069 23.1279 16.0512 24.4183 16.0354C25.25 16.0196 25.7965 16.7948 26.042 17.4909C26.4935 19.4447 24.1965 19.6345 22.8105 19.6583C23.5391 21.9127 22.8976 25.2429 19.872 24.1038C18.7049 23.3728 18.5915 21.8901 18.4924 20.5943ZM30.7096 22.34C32.4996 24.4125 35.8025 24.8871 38.1707 23.5661C39.3033 22.9333 39.7389 21.3038 38.733 20.3625C37.6429 19.4383 36.1775 19.5981 34.8075 19.7475C34.4654 19.7848 34.1293 19.8214 33.8065 19.8404C33.2204 18.5906 34.1075 18.1951 35.2005 17.9973C35.4116 17.9255 35.6298 17.8558 35.8513 17.7851L35.8517 17.785L35.852 17.7849L35.8523 17.7848L35.8527 17.7847L35.8528 17.7847L35.8528 17.7846L35.8529 17.7846C37.1686 17.3646 38.6021 16.907 39.3746 15.7429C39.6924 15.0976 39.7304 14.3708 39.768 13.6503C39.7867 13.2934 39.8053 12.9379 39.8577 12.5946C39.9449 11.7245 40.0161 10.8465 39.8657 9.97636C39.5884 7.32644 36.8004 6.55915 34.5193 6.77272C34.092 6.81835 33.6292 6.77928 33.1623 6.73988C32.2532 6.66316 31.3289 6.58515 30.6225 7.12868C29.3473 8.11746 29.2918 10.1583 30.7413 11.0126C31.8994 11.6516 33.2745 11.5886 34.5912 11.5282C34.9044 11.5139 35.2144 11.4997 35.5173 11.4951C35.4698 12.1675 35.5094 12.8478 35.6203 13.5122C30.4641 12.8715 27.28 18.3295 30.7096 22.34ZM15.3616 41.0381C18.1655 41.7342 25.9117 41.9795 25.3097 37.5972C24.6048 35.1688 21.5633 35.3428 19.5436 35.6355C19.5132 35.5296 19.4799 35.4217 19.4461 35.3123L19.4461 35.3123C19.2424 34.6529 19.0218 33.9385 19.3139 33.294C19.4118 33.2973 19.5132 33.3011 19.6174 33.305C21.547 33.377 24.4653 33.4859 24.3751 30.8893C24.0662 27.8281 20.1773 28.2394 17.9358 28.4767C15.2745 28.6428 12.6766 29.8531 12.5657 32.8273C12.2806 35.6592 12.0667 39.9386 15.3616 41.0381ZM20.5217 43.1346C21.5039 43.538 22.288 44.3923 22.1929 45.5393L22.2978 45.5414C23.8386 45.5719 26.0233 45.6152 26.2324 47.5485C26.549 49.8728 23.5031 49.961 21.8629 50.0084L21.8603 50.0085C21.6011 50.0273 21.3416 50.0469 21.0817 50.0666L21.0796 50.0667C18.9342 50.229 16.7698 50.3926 14.6368 50.1034C12.5537 49.9215 10.8667 47.6671 12.9577 46.18C14.0192 45.6785 15.2287 45.6559 16.41 45.6338C16.7007 45.6283 16.9897 45.6229 17.2743 45.6105C16.6565 43.8069 18.9772 41.8373 20.5217 43.1346ZM16.2839 55.4342C16.1175 57.9575 19.1669 59.4684 21.3609 58.8672C22.8579 58.4005 24.6954 57.3089 24.3786 55.4896C23.7925 51.6927 16.5294 51.2418 16.2839 55.4342ZM38.8652 37.1326C36.9247 38.2163 34.5406 37.6468 32.6001 36.84C30.5487 35.8591 30.1052 33.2804 30.8497 31.3107C31.2774 30.0926 32.1091 28.5738 33.5981 28.645C36.2368 28.8343 35.9756 31.8647 35.8092 33.7955L35.8079 33.8104C36.612 34.1824 36.86 34.1048 37.3459 33.9527L37.346 33.9526L37.346 33.9526L37.3461 33.9526C37.5111 33.901 37.7035 33.8407 37.9543 33.7866C38.8652 33.7629 39.5384 33.9053 39.9899 34.6014C40.5839 35.5902 39.8077 36.6976 38.8652 37.1326ZM45.0651 34.7818C45.4884 33.6328 45.5064 32.3686 45.5242 31.1191V31.119C45.5323 30.5449 45.5405 29.974 45.5878 29.4187C45.8096 26.5393 41.39 26.2308 41.4692 29.2525C37.4535 28.2717 37.7783 33.9433 41.6118 33.1048C41.7464 33.8721 41.984 34.6869 42.4276 35.3355C43.1959 36.1107 44.6057 35.731 45.0651 34.7818ZM46.901 32.9312V32.9311C46.8989 32.6217 46.8969 32.3126 46.8814 32.0053C46.9336 31.5173 46.8858 30.9401 46.8368 30.3469C46.7443 29.2285 46.6472 28.0537 47.2062 27.3145C50.3981 25.5031 51.4198 28.1925 51.8476 30.9295C52.0931 32.3929 52.0852 33.9512 51.5149 35.3434C50.5644 38.1357 47.721 37.2734 47.0319 34.8371C46.9092 34.2085 46.9051 33.5692 46.901 32.9312ZM39.5795 48.3493C39.35 48.3816 38.9152 48.3634 38.433 48.3432C37.5007 48.3042 36.3912 48.2577 36.245 48.5549C36.047 49.5674 36.2292 50.5799 37.2747 50.8014C37.4696 50.8209 37.6337 50.8078 37.7697 50.797C38.1308 50.7682 38.2928 50.7553 38.3043 51.4105C38.8271 53.57 35.9757 53.5463 34.9698 52.3755C33.56 50.6353 33.5441 47.1153 35.7856 46.079C36.5554 45.7562 37.5923 45.9945 38.4808 46.1986C39.247 46.3746 39.9027 46.5253 40.1815 46.2689C41.7735 43.6585 38.2251 43.2155 36.3876 43.1602C31.8887 43.1681 29.972 47.1627 30.7878 51.189C31.8571 54.622 34.4946 56.2832 38.0588 55.6583C41.6547 55.3577 41.5517 53.7203 41.3537 50.659C41.4012 49.5279 41.029 48.0645 39.5795 48.3493ZM46.8182 47.2971C48.2122 47.7321 49.6617 48.2621 50.7072 49.3221C52.2754 50.4533 51.8556 52.8184 50.8418 54.1869C49.4082 55.9034 46.7311 55.7135 44.743 55.2864C44.5409 55.1967 44.3057 55.1336 44.0667 55.0696C43.5473 54.9304 43.01 54.7864 42.755 54.353C42.5808 53.5778 42.6916 52.2093 43.4678 51.8138C44.0065 51.9009 44.5391 52.0992 45.0723 52.2978C45.8953 52.6043 46.7199 52.9113 47.5706 52.8105C48.0538 52.7235 48.3548 52.3042 48.2756 51.8217C47.9245 51.2657 47.2175 51.0375 46.5642 50.8267C46.3625 50.7616 46.1659 50.6982 45.9866 50.6273C43.6738 50.3425 42.3748 47.8904 42.9926 45.7388C44.0698 42.8436 47.8875 42.899 50.4141 43.5397C51.8952 43.785 51.3012 45.6597 50.7705 46.5614C50.361 46.7305 49.9589 46.58 49.5411 46.4235C49.3529 46.353 49.1614 46.2813 48.9647 46.2371C48.9222 46.2255 48.8766 46.2129 48.8285 46.1996C47.988 45.9667 46.3498 45.5127 46.1925 46.5377C46.137 46.9016 46.3984 47.2813 46.8182 47.2971Z" fill="#060606"/>
</g>
<defs>
<clipPath id="clip0_559_2888">
<rect width="64" height="64" fill="white"/>
</clipPath>
</defs>
</svg>
