<svg width="28" height="38" viewBox="0 0 28 38" fill="none" xmlns="http://www.w3.org/2000/svg">
<path d="M13.2355 37.6373C11.4406 37.6373 9.64573 37.6494 7.85086 37.6333C6.74818 37.6212 5.91513 37.1262 5.46037 36.104C4.78025 34.5747 5.79037 32.8241 7.44842 32.6108C7.69391 32.5786 7.94342 32.5625 8.18891 32.5827C9.0139 32.6511 9.63768 32.2688 10.1609 31.6973C10.6478 31.1661 10.9134 30.5383 10.8933 29.8018C10.8812 29.3793 10.8973 28.9567 10.8893 28.5341C10.8852 28.4054 10.9174 28.3611 11.0543 28.3611C12.6238 28.3651 14.1893 28.3651 15.7588 28.3611C15.9077 28.3611 15.9358 28.4134 15.9318 28.5462C15.9238 28.9929 15.9077 29.4436 15.9318 29.8944C15.9801 30.7355 16.2618 31.476 16.95 32.0112C17.445 32.3975 18.0245 32.5384 18.6443 32.5424C19.0266 32.5424 19.4049 32.5223 19.7832 32.6108C20.9462 32.8845 21.7591 33.9268 21.7229 35.118C21.6867 36.3133 20.8255 37.3073 19.6544 37.5246C18.7771 37.6856 17.8917 37.6292 17.0104 37.6413C16.3826 37.6494 15.7507 37.6413 15.1229 37.6413C14.4951 37.6373 13.8633 37.6373 13.2355 37.6373Z" fill="#060606"/>
<path d="M27.7236 13.6314C27.6512 12.3597 27.3051 11.1765 26.7658 10.0336C26.3352 9.12007 25.8523 8.2347 25.4096 7.32519C24.5363 5.53434 23.7637 3.69117 22.8179 1.93654C22.2465 0.878126 21.4134 0.246298 20.1618 0.250322C17.4615 0.258371 14.7611 0.254346 12.0648 0.254346C10.3906 0.254346 8.71647 0.242273 7.04233 0.258371C6.01611 0.270444 5.22733 0.733248 4.7766 1.65886C4.32184 2.58044 3.9194 3.5302 3.51294 4.47593C3.19099 5.22446 2.90124 5.9891 2.59941 6.74568C1.94343 8.38763 1.16672 9.97726 0.623433 11.6635C0.208921 12.9553 -0.0486395 14.2713 0.00770186 15.6396C0.0479457 16.698 0.361848 17.684 0.808555 18.6216C1.30355 19.664 1.99172 20.5694 2.83684 21.3663C3.42441 21.9216 4.07636 22.3844 4.75245 22.8231C5.71831 23.4509 6.79684 23.8453 7.88342 24.2115C8.56757 24.4449 9.25976 24.6542 9.9761 24.7709C11.28 24.9842 12.6 24.9882 14.2862 25.0405C14.7168 25.0768 15.5096 24.9198 16.3065 24.9279C16.4513 24.9279 16.6002 24.8997 16.7451 24.8715C18.3026 24.5616 19.8318 24.1511 21.2806 23.4791C21.9165 23.1853 22.5684 22.9197 23.1399 22.4931C23.6027 22.151 24.0534 21.7929 24.4719 21.3944C24.9267 20.9598 25.3855 20.5212 25.7517 20.0101C26.303 19.2414 26.7457 18.4043 27.116 17.5391C27.6432 16.2915 27.8001 14.9836 27.7236 13.6314ZM22.0171 11.5669C21.3852 12.0579 20.681 12.3919 19.9083 12.6052C19.2966 12.7742 18.6809 12.8788 18.049 12.8708C16.7854 12.8587 15.6344 12.5006 14.6444 11.7037C14.3184 11.4421 14.0206 11.1323 13.7389 10.8184C12.934 9.92494 11.9521 9.33738 10.7931 9.03958C9.76684 8.778 8.76476 8.91482 7.77477 9.24482C7.44477 9.35348 7.11879 9.47421 6.74452 9.60702C6.88538 9.26495 7.00208 8.95507 7.14294 8.65324C7.62586 7.61092 8.05647 6.54044 8.51123 5.48605C8.57562 5.33715 8.64806 5.27678 8.81708 5.27678C11.5577 5.28483 14.2943 5.2808 17.0349 5.2808C17.5017 5.2808 17.9726 5.2969 18.4394 5.27276C18.6648 5.26068 18.7694 5.36532 18.8539 5.53434C19.035 5.90056 19.2483 6.24666 19.4576 6.59678C20.2463 7.90068 21.019 9.21665 21.7233 10.5688C21.848 10.8063 21.9527 11.0518 22.0774 11.2892C22.1378 11.4099 22.1217 11.4864 22.0171 11.5669Z" fill="#8F55FA"/>
</svg>
