<svg width="56" height="56" viewBox="0 0 56 56" fill="none" xmlns="http://www.w3.org/2000/svg">
<rect width="56" height="56" rx="28" fill="#00D4EA"/>
<path fill-rule="evenodd" clip-rule="evenodd" d="M20.6097 31.9776V27.2827H16.408L16.7012 29.0563H18.4437V30.7726C18.0366 30.9864 17.6457 31.0803 17.092 31.0803C15.3603 31.0803 14.4917 29.8075 14.4917 27.9922C14.4917 26.1873 15.3332 24.9614 17.0649 24.9614C18.0963 24.9614 18.9866 25.3266 19.7357 25.7856L20.0723 23.7042C19.2689 23.2765 18.2374 23 16.9997 23C13.9054 23 12 25.024 12 28.013C12 30.9917 13.7589 33 16.9454 33C18.3243 33 19.562 32.6348 20.6097 31.9776ZM28.7811 29.9143C28.7811 28.3807 27.9126 27.6504 25.7303 26.8836C24.4763 26.4245 24.1994 26.1846 24.1994 25.6942C24.1994 25.2456 24.5631 24.943 25.3231 24.943C26.0886 24.943 27.0386 25.2195 27.9397 25.7203L28.3197 23.7119C27.4457 23.3051 26.6043 23.0703 25.296 23.0703C23.3797 23.0703 21.8651 24.0614 21.8651 25.9185C21.8651 27.5095 22.7337 28.1407 24.7423 28.8815C26.1537 29.3979 26.4414 29.6535 26.4414 30.196C26.4414 30.7698 25.9474 31.062 25.2363 31.062C24.232 31.062 23.0866 30.6968 22.0551 30.1699L21.6914 32.2096C22.712 32.6582 23.8411 32.9347 25.1928 32.9347C27.1851 32.9295 28.7811 32.0114 28.7811 29.9143ZM33.9231 29.4145L33.8502 29.4605C33.101 29.9352 32.4604 30.389 32.4604 30.8064H36.5862V32.7365H29.8873C29.8167 32.3452 29.7842 32.0322 29.7842 31.7505C29.7842 29.603 31.3808 28.5543 32.6652 27.7107L32.6776 27.7025L32.7131 27.6794C33.5107 27.1583 34.1433 26.745 34.1433 26.195C34.1433 25.5012 33.595 25.0578 33.0304 25.0578C32.1619 25.0578 31.6407 25.8559 31.5213 26.0594L29.6484 25.2143C29.7896 24.9274 30.7667 23.0703 33.1987 23.0703C34.8273 23.0703 36.5807 23.978 36.5807 25.9655C36.5807 27.7378 35.0715 28.69 33.9231 29.4145ZM42.4254 26.0112C42.2951 25.9695 42.0671 25.9121 41.8391 25.9121C41.1985 25.9121 40.6828 26.4077 40.6828 27.0232C40.6828 27.4405 40.9108 27.7953 41.2745 27.9935C41.3658 28.0449 41.5409 28.105 41.6942 28.1577C41.8054 28.1959 41.9052 28.2302 41.9531 28.2543C42.4417 28.5047 42.7674 28.9951 42.7674 29.5636C42.7674 30.3826 42.078 31.0451 41.2257 31.0451C40.4168 31.0451 39.7545 30.4452 39.6894 29.6836L37.6211 30.1166C37.9577 31.7598 39.4668 32.9961 41.2745 32.9961C43.332 32.9961 44.9986 31.3946 44.9986 29.4176C44.9931 27.837 43.9128 26.4755 42.4254 26.0112ZM41.8391 27.7587C41.4157 27.7587 41.0682 27.4249 41.0682 27.018C41.0682 26.6111 41.4157 26.2773 41.8391 26.2773C42.2625 26.2773 42.61 26.6111 42.61 27.018C42.6045 27.4301 42.2625 27.7587 41.8391 27.7587ZM42.597 25.1352H40.2084L39.9424 27.6704H37.8633L38.2704 23.2051H44.5242C44.5242 24.0345 44.0084 25.1352 42.597 25.1352Z" fill="#060606"/>
</svg>
