<svg width="56" height="56" viewBox="0 0 56 56" fill="none" xmlns="http://www.w3.org/2000/svg">
<rect width="56" height="56" rx="28" fill="#09E27C"/>
<path fill-rule="evenodd" clip-rule="evenodd" d="M13.1328 23.1248H11.7428L11.5046 21.6259H14.8602V25.586C14.0263 26.143 13.0434 26.4468 11.9414 26.4468C9.39984 26.4468 8 24.7554 8 22.2336C8 19.7117 9.51898 18 11.9811 18C12.964 18 13.788 18.2329 14.4333 18.5976L14.1653 20.3598C13.5597 19.9649 12.8548 19.661 12.0308 19.661C10.6508 19.661 9.98559 20.6941 9.98559 22.2234C9.98559 23.7629 10.6706 24.8365 12.0605 24.8365C12.4974 24.8365 12.8051 24.7554 13.1328 24.5731V23.1248ZM17.7206 20.279C17.7206 20.6942 17.949 20.8968 18.9418 21.2816C20.6692 21.9298 21.3642 22.5477 21.3642 23.8238C21.3642 25.5962 20.0934 26.3761 18.5049 26.3761C17.4327 26.3761 16.5293 26.1431 15.7152 25.7684L16.0031 24.0466C16.8271 24.5024 17.7405 24.8062 18.5347 24.8062C19.1006 24.8062 19.4977 24.5632 19.4977 24.077C19.4977 23.6111 19.2694 23.3984 18.1475 22.9629C16.5491 22.3451 15.8542 21.8083 15.8542 20.4613C15.8542 18.8914 17.0555 18.0508 18.5844 18.0508C19.6268 18.0508 20.3019 18.2533 20.9969 18.5977L20.699 20.2992C19.9842 19.8738 19.2297 19.6409 18.6141 19.6409C18.0085 19.6409 17.7206 19.9042 17.7206 20.279ZM24.3008 19.2661H27.1501V26.2849H28.3712V19.2661H31.0816V18.1722H24.3008V19.2661ZM33.5649 21.5753H38.4892V18.1722H39.7004V26.2849H38.4892V22.659H33.5649V26.2849H32.3438V18.1722H33.5649V21.5753ZM41.8359 26.2849H48.0012V25.1809H42.9975V22.6387H47.1474V21.5449H42.9975V19.2661H48.0012V18.1722H41.8359V26.2849ZM34.9325 32.9466L36.5111 33.372C37.9109 33.767 38.6555 34.3746 38.6555 35.5191C38.6555 37.0181 37.3649 38.0005 35.4786 38.0005C34.3269 38.0005 33.2348 37.5954 32.7285 37.3017L33.0164 36.1167C33.5525 36.461 34.5056 36.856 35.4984 36.856C36.66 36.856 37.3947 36.3699 37.3947 35.6204C37.3947 35.0431 36.8983 34.7291 36.0047 34.5063L34.4063 34.0911C33.2547 33.7872 32.6094 33.0884 32.6094 32.0249C32.6094 30.7589 33.5922 29.6651 35.7466 29.6651C36.8387 29.6651 37.9308 29.979 38.5265 30.3133L38.1591 31.478C37.6031 31.1235 36.5806 30.8095 35.697 30.8095C34.4262 30.8095 33.8603 31.3261 33.8603 31.9338C33.8603 32.4807 34.2475 32.7643 34.9325 32.9466ZM23.0036 32.367C23.0036 33.8356 21.8718 34.818 20.5018 34.899C20.6286 35.0317 20.7588 35.1749 20.8923 35.3217C21.5741 36.0716 22.3405 36.9145 23.1625 36.9145H23.7681V37.9982H22.9738C21.7538 37.9982 20.7538 36.8362 19.9441 35.8952C19.5877 35.4809 19.2681 35.1095 18.9828 34.899H17.7815V37.8767H16.5703V29.7641H20.0153C21.5144 29.7641 23.0036 30.4629 23.0036 32.367ZM17.7815 30.8579V33.9065V33.9166H20.1444C21.028 33.9166 21.7329 33.3494 21.7329 32.3974C21.7329 31.3542 21.0379 30.8579 20.1444 30.8579H17.7815ZM10.1655 37.8885H9.00391V29.7759H14.9309V30.8698H10.1655V33.1486H14.3054V34.2526H10.1655V37.8885ZM25.2773 37.8885H31.4426V36.7846H26.4389V34.2424H30.5888V33.1486H26.4389V30.8698H31.4426V29.7759H25.2773V37.8885ZM46.4284 29.7759V33.1587H41.5042V29.7759H40.293V37.8885H41.5042V34.2526H46.4284V37.8885H47.6397V29.7759H46.4284Z" fill="#060606"/>
</svg>
