<svg width="48" height="16" viewBox="0 0 48 16" fill="none" xmlns="http://www.w3.org/2000/svg">
<path fill-rule="evenodd" clip-rule="evenodd" d="M12.523 13.9664V6.9241H6.41152L6.83791 9.58451H9.37251V12.1588C8.78031 12.4797 8.2118 12.6205 7.40642 12.6205C4.8876 12.6205 3.62425 10.7113 3.62425 7.98826C3.62425 5.28091 4.84812 3.4421 7.36694 3.4421C8.86717 3.4421 10.1621 3.98983 11.2518 4.6784L11.7413 1.55634C10.5727 0.914711 9.07246 0.5 7.27218 0.5C2.77148 0.5 0 3.53599 0 8.01956C0 12.4875 2.55829 15.5 7.19322 15.5C9.1988 15.5 10.9991 14.9523 12.523 13.9664ZM24.4069 10.8686C24.4069 8.56811 23.1435 7.47265 19.9693 6.32242C18.1454 5.63384 17.7427 5.2739 17.7427 4.53838C17.7427 3.86545 18.2717 3.41162 19.3771 3.41162C20.4905 3.41162 21.8723 3.82633 23.183 4.5775L23.7357 1.56498C22.4645 0.954655 21.2406 0.602542 19.3376 0.602542C16.5504 0.602542 14.3474 2.08924 14.3474 4.87484C14.3474 7.26138 15.6108 8.20818 18.5323 9.31929C20.5852 10.0939 21.0037 10.4773 21.0037 11.2911C21.0037 12.1518 20.2852 12.59 19.2508 12.59C17.79 12.59 16.124 12.0423 14.6238 11.252L14.0947 14.3115C15.5792 14.9844 17.2215 15.3991 19.1876 15.3991C22.0854 15.3913 24.4069 14.0141 24.4069 10.8686ZM31.8875 10.1188L31.7814 10.1878C30.6918 10.8999 29.76 11.5806 29.76 12.2066H35.761V15.1018H26.0173C25.9147 14.5149 25.8673 14.0454 25.8673 13.6229C25.8673 10.4016 28.1896 8.82857 30.0579 7.56306L30.0759 7.5509L30.1275 7.51614C31.2877 6.7345 32.2078 6.11461 32.2078 5.28955C32.2078 4.24886 31.4103 3.58376 30.5891 3.58376C29.3258 3.58376 28.5677 4.78095 28.394 5.08611L25.6699 3.8185C25.8752 3.38814 27.2965 0.602542 30.8339 0.602542C33.2027 0.602542 35.7531 1.96404 35.7531 4.94526C35.7531 7.60378 33.5578 9.03205 31.8875 10.1188ZM44.2575 5.01633C44.068 4.95373 43.7363 4.86766 43.4047 4.86766C42.473 4.86766 41.7229 5.61101 41.7229 6.53433C41.7229 7.16031 42.0545 7.69239 42.5835 7.98973C42.7162 8.06681 42.9709 8.15703 43.1939 8.23603L43.1939 8.23604C43.3557 8.29336 43.5008 8.34477 43.5705 8.38096C44.2812 8.75655 44.7549 9.49207 44.7549 10.345C44.7549 11.5735 43.7521 12.5672 42.5125 12.5672C41.336 12.5672 40.3727 11.6673 40.2779 10.5249L37.2695 11.1744C37.7591 13.6392 39.9542 15.4936 42.5835 15.4936C45.5761 15.4936 48.0002 13.0914 48.0002 10.1259C47.9923 7.75498 46.421 5.71273 44.2575 5.01633ZM43.4047 7.63761C42.7888 7.63761 42.2835 7.13683 42.2835 6.5265C42.2835 5.91617 42.7888 5.41539 43.4047 5.41539C44.0206 5.41539 44.5259 5.91617 44.5259 6.5265C44.518 7.14466 44.0206 7.63761 43.4047 7.63761ZM44.5005 3.7003H41.0263L40.6394 7.50311H37.6152L38.2074 0.805147H47.3036C47.3036 2.04928 46.5535 3.7003 44.5005 3.7003Z" fill="#060606"/>
</svg>
